# xmcd
# Copyright (C) 1995-1998 Ti Kan
#
# Track frame offsets:
#       150
#       16505
#       32547
#       49344
#       63500
#       79688
#       97619
#       113042
#       130389
#       144483
#       161610
#       179254
#       197838
#       215045
#       232276
#       247699
#       264702
#       282633
#       299193
#       317948
#
# Disc length: 4419 seconds
#
# Revision: 0
# Processed by: cddbd v1.5.2PL0 Copyright (c) Steve Scherf et al.
# Submitted via: CD-Import v1.0
#
DISCID=2d114114
DTITLE=Various Artist - Reggae Version
DYEAR=07
DGENRE=
TTITLE0=Lee Francis - So Sick
TTITLE1=Meleka - Smile
TTITLE2=Nato - Crazy
TTITLE3=Roger Robin - You're Beautiful
TTITLE4=Don Campbell - You Remind Me
TTITLE5=Terry Linen - You Love Is My Love
TTITLE6=Nato - Bad Day
TTITLE7=Meleka - Get Right
TTITLE8=Jo-Anne - We Belong Together
TTITLE9=Taurus Riley - Stay With You
TTITLE10=Terry Linen - That's The Way It Is
TTITLE11=Da'ville - In Heaven
TTITLE12=T.o.k - I Believe
TTITLE13=Ghost - Believe
TTITLE14=Hakim - Sexy Love
TTITLE15=Shikinah - Unfaithful
TTITLE16=Tajh - Too Little Too Late
TTITLE17=Tony Curtis - Faith
TTITLE18=Terry Linen - The World's Greatest
TTITLE19=Sophie Feat. Baby Chris - Me And You
EXTD=
EXTT0=
EXTT1=
EXTT2=
EXTT3=
EXTT4=
EXTT5=
EXTT6=
EXTT7=
EXTT8=
EXTT9=
EXTT10=
EXTT11=
EXTT12=
EXTT13=
EXTT14=
EXTT15=
EXTT16=
EXTT17=
EXTT18=
EXTT19=
PLAYORDER=
